<?xml version="1.0" encoding="UTF-8"?>
<svg id="_레이어_2" data-name="레이어 2" xmlns="http://www.w3.org/2000/svg" viewBox="0 0 661.89 746.95">
  <defs>
    <style>
      .cls-1, .cls-2, .cls-3, .cls-4, .cls-5 {
        stroke: #000;
        stroke-miterlimit: 10;
      }

      .cls-1, .cls-3, .cls-5 {
        fill: #e9dba4;
      }

      .cls-1, .cls-6, .cls-7, .cls-8, .cls-9 {
        stroke-width: 5px;
      }

      .cls-2 {
        fill: #7c6a59;
      }

      .cls-2, .cls-10, .cls-11, .cls-4, .cls-5 {
        stroke-width: 4px;
      }

      .cls-3 {
        stroke-width: 3px;
      }

      .cls-10, .cls-6, .cls-11, .cls-7, .cls-8, .cls-9 {
        stroke: #231815;
        stroke-linecap: round;
        stroke-linejoin: round;
      }

      .cls-10, .cls-7 {
        fill: #fcb811;
      }

      .cls-6 {
        fill: #fff;
      }

      .cls-11 {
        fill: #d83930;
      }

      .cls-12 {
        fill: #5d391c;
      }

      .cls-4, .cls-9 {
        fill: none;
      }

      .cls-8 {
        fill: #906351;
      }
    </style>
  </defs>
  <g id="_레이어_1-2" data-name="레이어 1">
    <path class="cls-7" d="M300.74,701.84c-.03-.08-.08-.15-.13-.22-.58-1.12-1.17-2.13-1.77-3.16-.41-.67-.77-1.31-1.17-1.98-10.72-17.06-23.12-19.15-26.34-19.38-.26,0-.52-.03-.82-.03h0c-.25,0-.53.03-.8.03-3.22.24-15.6,2.32-26.33,19.38-.4.67-.8,1.31-1.17,1.98-.59,1.03-1.2,2.04-1.77,3.16-.03.06-.09.14-.14.22-9.85,18.48-13.32,39.9,21.45,42.28,3.12.22,6.04.31,8.76.32,2.75-.01,5.66-.11,8.78-.32,34.76-2.38,31.31-23.81,21.45-42.28Z"/>
    <path class="cls-7" d="M427.31,701.84c-.05-.08-.08-.15-.13-.22-.59-1.12-1.17-2.13-1.77-3.16-.38-.67-.77-1.31-1.18-1.98-10.71-17.06-23.1-19.15-26.33-19.38-.27,0-.52-.03-.79-.03h-.02c-.26,0-.53.03-.79.03-3.22.24-15.62,2.32-26.34,19.38-.4.67-.79,1.31-1.17,1.98-.61,1.03-1.18,2.04-1.77,3.16-.04.06-.08.14-.12.22-9.87,18.48-13.34,39.9,21.41,42.28,3.15.22,6.04.31,8.77.32,2.76-.01,5.65-.11,8.8-.32,34.75-2.38,31.29-23.81,21.42-42.28Z"/>
    <path class="cls-6" d="M444.81,522.92h-217.72s-38.15,92.82.4,153.99c10.01,17.29,29.43,38.73,62.65,32.61.07-.02.13-.03.21-.05,2.57-.48,5.23-1.17,7.95-1.99,8.23-2.69,16.53-7.01,20.88-9.42,2.98-1.93,8.83-5.02,16.15-5.19.22.01.42.05.63.05s.4-.03.6-.05c7.32.17,13.18,3.25,16.15,5.19,4.34,2.41,12.64,6.73,20.87,9.42,2.73.83,5.39,1.51,7.95,1.99.1.02.15.03.23.05,33.21,6.12,52.63-15.32,62.62-32.61,38.6-61.17.42-153.99.42-153.99Z"/>
    <path class="cls-6" d="M364.62,688.07s-9.25,6.8-31.43,6.8h-.37c-22.17,0-31.43-6.8-31.43-6.8"/>
    <path class="cls-6" d="M188.26,549.5c-5.35,22.89-22.49,107.44,15.29,113.66.15.01.3.05.45.06.35.05.69.09,1.04.13l1.55.11c36.9,2.69,37.57-72.38,37.57-72.38"/>
    <path class="cls-6" d="M485.33,549.5c5.34,22.89,22.48,107.44-15.3,113.66-.15.01-.29.05-.46.06-.34.05-.69.09-1.03.13l-1.55.11c-36.91,2.69-37.58-72.38-37.58-72.38"/>
    <g>
      <path class="cls-5" d="M179.27,621.65l42.97,9.04,5.45-25.87s-11.6,47.75-7.39,58.35c4.91,12.36,15.85,25.33,15.85,25.33,0,0,69.8,6.82,92.31,7.72,16.73.67,107.94-5.11,107.94-5.11,0,0,14.15-13.21,16.29-29.88.67-5.25-5.18-34.36-11.51-60.77-.9-3.75,6.17,25.87,5.28,22.21-.94-3.82,49.33-13.89,49.1-17.58-2.79-44.66-11.95-55.93-11.95-55.93-.95-1.86-56.44-2.13-56.44-2.13h-239.52s-6.46,27.44-7.5,36.6-.87,38.03-.87,38.03Z"/>
      <path class="cls-5" d="M273.22,550.12l37.29,45.21c2.79,2.65,4.89,1.64,6.63-.93l11.96-13.18-20.06-31.68-35.83.58Z"/>
      <path class="cls-5" d="M348.15,550.24l-19.05,30.97,13.28,16.12c.9,1,2.4.88,3.08-.25l34.74-47.07-32.05.22Z"/>
      <g>
        <path class="cls-12" d="M380.23,581.11c-1.4-.05-2.55,1-2.58,2.37l-.17,10c-.03,1.83-1.59,3.25-3.49,3.19-1.89-.08-3.4-1.62-3.37-3.45l.18-10c.03-1.35-1.09-2.5-2.51-2.56-1.39-.04-2.55,1.02-2.58,2.38l-.16,9.99c-.08,4.55,3.68,8.38,8.37,8.56,4.69.18,8.58-3.37,8.66-7.92l.17-10c.02-1.36-1.1-2.5-2.51-2.55Z"/>
        <path class="cls-12" d="M400.5,589.91c.08-4.53-3.67-8.37-8.36-8.55-4.63-.17-8.46,3.28-8.65,7.72,0,.03,0,.06,0,.1v.09s0,.01,0,.01l-.08,4.34h0v.06c-.08,4.54,3.67,8.38,8.37,8.55,4.62.17,8.46-3.27,8.65-7.71,0-.03,0-.06,0-.09v-.1h0l.07-4.36h0v-.06ZM391.86,597.32c-1.89-.07-3.4-1.62-3.37-3.44l.08-4.41c.03-1.82,1.6-3.26,3.48-3.18,1.89.08,3.4,1.61,3.37,3.44l-.08,4.42c-.03,1.82-1.59,3.26-3.48,3.18Z"/>
        <path class="cls-12" d="M415.15,592.18l-8.6-3.45c.57-1.11,1.77-1.87,3.15-1.82l4.67.18c1.4.05,2.56-1.02,2.58-2.37.03-1.36-1.1-2.5-2.5-2.56l-4.65-.17c-4.7-.18-8.58,3.37-8.66,7.92,0,.01,0,.04,0,.07-.08,1.04.54,2.08,1.61,2.5l8.71,3.49c-.51,1.25-1.78,2.1-3.26,2.05l-4.66-.17c-1.4-.05-2.56,1.01-2.58,2.36-.03,1.36,1.09,2.51,2.5,2.55l4.66.18c4.7.18,8.57-3.38,8.65-7.92,0-.08,0-.17,0-.25.12-1.07-.51-2.16-1.61-2.6Z"/>
      </g>
      <path class="cls-4" d="M327.69,580.22s5.03,8.51,5.18,46.1c.14,35.24,1.28,62.91-.05,68.55"/>
    </g>
    <g>
      <path class="cls-8" d="M582.79,98.62c-.66-2.95-1.1-4.58-1.1-4.58-10.91,10.35-22.99,17.22-34.59,21.73-.61.23-1.2.45-1.78.69-.16.05-.31.11-.48.15-29.53,10.16-67.82-.63-85.36-6.75-1.64-.62-3.25-1.22-4.87-1.85h0l-.21-.08c-1.37-.52-2.75-1.03-4.11-1.54-.18-.08-.33-.13-.35-.14h-.01c-3.17-1.18-6.22-2.24-9.3-3.33-.07-.02-.14-.08-.19-.09-1.21-.44-4.17-1.48-7.52-2.67-.27-.12-.49-.23-.8-.34-2.06-.75-4.21-1.48-6.37-2.23-.26-.09-.55-.2-.82-.28h0s-.11-.02-.15-.04c-2.53-.89-4.52-1.6-5.45-1.94h-.02c-.11-.04-.21-.09-.33-.1-.08-.04-.3-.12-.3-.12h0c-3.68-1.25-7.44-2.44-11.3-3.57l-.6-.21v.03c-.28-.08-.57-.14-.84-.21-.71-.22-1.2-.38-1.2-.38l-.05.06c-21.46-6.12-45.5-10.33-71.76-10.53-.02,0-.08,0-.12.02h-.12c-107.73.32-179.87,66.96-179.87,66.96-5.48,5.22-10.53,10.44-15.13,15.53-104.23,105.63-34.23,241.92-1.4,293.05,0,0,17.01,26.49,35.14,60.34h-.58c-1.91,4.99-2.98,10.46-2.98,16.26-.06,22.48,15.89,40.75,35.58,40.79,14.8.04,27.53-10.22,32.96-24.88,5.35,14.65,18.03,24.96,32.83,25.03,13.18.03,24.71-8.13,30.9-20.25,6.14,12.14,17.64,20.32,30.82,20.37,13.41.03,25.1-8.41,31.23-20.87,6.06,12.49,17.72,20.98,31.13,21,15.27,0,28.3-10.9,33.44-26.28,5.06,15.39,18.06,26.4,33.31,26.4,19.72.05,35.72-18.15,35.75-40.63.02-5.6-.97-10.99-2.76-15.85h-.94c0-.06.03-.12.03-.12,18.36-33.91,35.55-60.48,35.55-60.48,25.01-38.6,71.29-125.83,47.5-211.95,9.37-22.29,13.32-46.1,14.36-68.07,2.06-30.19-1.93-57.52-6.76-78.05Z"/>
      <path class="cls-9" d="M544.17,181.22s23.74,31.68,31.02,63.5"/>
    </g>
    <g>
      <path class="cls-6" d="M524.39,307.87c0,88.59-84.16,160.41-187.97,160.41s-188.01-71.82-188.01-160.41,84.16-160.44,188.01-160.44,187.97,71.84,187.97,160.44Z"/>
      <path class="cls-12" d="M424.98,257.83c0,12.14-7.04,21.97-15.71,21.97s-15.7-9.83-15.7-21.97,7.03-21.98,15.7-21.98,15.71,9.85,15.71,21.98Z"/>
      <path class="cls-12" d="M278.93,257.83c0,12.14-7.03,21.97-15.69,21.97s-15.7-9.83-15.7-21.97,7.03-21.98,15.7-21.98,15.69,9.85,15.69,21.98Z"/>
      <path class="cls-10" d="M389.34,313.58c0,42.92-23.52,77.74-52.54,77.74s-52.56-34.82-52.56-77.74,23.52-77.73,52.56-77.73,52.54,34.79,52.54,77.73Z"/>
      <path class="cls-11" d="M371.26,303.29c-1.15-2.4-3.69-4.03-8.76-3.4h-.07c-7.63,1.33-16.26,2.18-25.62,2.35-9.37-.17-17.98-1.03-25.63-2.35h-.07c-5.08-.63-7.61,1-8.79,3.4-.34,1-1.65,5.57.94,12.76.57,1.39,1.25,2.99,2.07,4.74,0,.05.04.09.04.14,4.49,9.72,12.35,23.88,22.05,28.93.03.02,3.95,2.88,9.39,2.85,5.42.02,9.35-2.84,9.38-2.85,9.7-5.05,17.58-19.21,22.05-28.93.01-.06.02-.09.04-.14.83-1.75,1.51-3.35,2.07-4.74,2.6-7.2,1.27-11.77.92-12.76Z"/>
      <g>
        <path class="cls-12" d="M182.18,301.21c-.31,0-.6-.06-.88-.2-1-.49-1.4-1.67-.91-2.67l11.4-23.37c.49-1,1.69-1.39,2.67-.92.99.48,1.4,1.67.92,2.67l-11.4,23.37c-.35.72-1.07,1.12-1.79,1.12Z"/>
        <path class="cls-12" d="M198.8,301.45c-.3,0-.59-.07-.87-.2-.99-.48-1.4-1.67-.92-2.67l11.39-23.39c.48-.99,1.7-1.39,2.67-.92,1,.48,1.41,1.68.92,2.66l-11.39,23.39c-.35.71-1.06,1.12-1.8,1.12Z"/>
        <path class="cls-12" d="M215.31,301.69c-.3,0-.6-.07-.88-.2-.99-.48-1.4-1.68-.92-2.66l11.41-23.39c.48-1,1.68-1.39,2.67-.92.98.48,1.41,1.67.91,2.67l-11.39,23.38c-.35.7-1.07,1.12-1.79,1.12Z"/>
      </g>
      <g>
        <path class="cls-12" d="M431.86,301.21c-.3,0-.59-.06-.88-.2-1-.49-1.4-1.67-.92-2.67l11.4-23.37c.49-1,1.71-1.39,2.67-.92,1,.48,1.4,1.67.91,2.67l-11.4,23.37c-.35.72-1.05,1.12-1.79,1.12Z"/>
        <path class="cls-12" d="M448.48,301.45c-.29,0-.59-.07-.87-.2-.99-.48-1.4-1.67-.92-2.67l11.39-23.39c.49-.99,1.69-1.39,2.67-.92.99.48,1.4,1.68.92,2.66l-11.41,23.39c-.34.71-1.04,1.12-1.79,1.12Z"/>
        <path class="cls-12" d="M464.99,301.69c-.3,0-.6-.07-.88-.2-1-.48-1.41-1.68-.93-2.66l11.41-23.39c.5-1,1.7-1.39,2.67-.92.99.48,1.41,1.67.91,2.67l-11.39,23.38c-.35.7-1.05,1.12-1.79,1.12Z"/>
      </g>
    </g>
    <path class="cls-1" d="M82.69,301.69S.3,271.67,2.55,235.48c2.99-48.1,173.45-73.17,307.27-85.83,118.94-11.25,343.87,35.79,349.24,83.39,6.18,54.71-77.26,60.7-77.26,60.7,0,0,.44-24.31-11.32-55.37-8.46-22.35-124.85-46.02-248.91-37.99-138.63,8.97-228.71,32.68-234.35,52.34-4.64,16.19-4.53,48.98-4.53,48.98Z"/>
    <g>
      <path class="cls-1" d="M90.52,182.4S139.91-1.66,326.67,2.57c199.45,4.52,260.35,181.17,260.35,181.17,0,0-148.76-41-270.99-32.85-102.53,6.84-225.51,31.5-225.51,31.5Z"/>
      <path class="cls-2" d="M92.53,181.85s99.13-72.38,242.51-78.8c177.13-7.92,246.53,77.53,246.53,77.53,0,0-148.36-35.44-253.19-30.35-113.73,5.52-235.84,31.61-235.84,31.61Z"/>
      <path class="cls-1" d="M240.39,116.97s.28-11.16,24.55-45.21c25.61-35.92,58.97-69.23,58.97-69.23"/>
      <path class="cls-1" d="M356.44,4.6s39.42,25.19,62.79,54.79c28.39,35.95,27.93,50.39,27.93,50.39"/>
    </g>
    <path class="cls-3" d="M220.54,638.34l-40.88-4.92c-1.17-.28-1.43-.07-2.18-1.37l-1.67-10.52c.62-1.82,2.89-3.02,4.24-2.75l40.72,4.42c1.75.54,3.97.97,4.24,2.99l-.89,9.28c-.59,1.92-2.19,3.2-3.59,2.87Z"/>
    <path class="cls-3" d="M448.4,617.12l44.53-12.88c1.33-.23,1.52-.55,2.88.43l2.76,12.34c-2.35,3.32-3.81,4.68-5.34,4.99l-38.2,10.5c-2.05.22-4.56.75-5.75-1.17l-3.31-9.76c-.27-2.19.81-4.19,2.41-4.46Z"/>
    <g>
      <rect class="cls-3" x="244.6" y="644.83" width="43.14" height="23.84" rx="2.2" ry="2.2" transform="translate(24.28 -9.33) rotate(2.1)"/>
      <path class="cls-3" d="M289.6,646.66l-46.63-1.71c-.58-.02-1.72-.62-1.76-1.04l1.14-9.36c-.04-.49,1.16-.93,1.82-.9l45.84,2.17c.61.03,1.09.41,1.07.86l-.34,9.21c-.02.45-.53.8-1.14.78Z"/>
    </g>
    <g>
      <rect class="cls-3" x="387.35" y="645.22" width="43.14" height="23.84" rx="2.2" ry="2.2" transform="translate(841.6851 1298.8368) rotate(177.8966)"/>
      <path class="cls-3" d="M385.49,647.05l46.63-1.71c.58-.02,1.72-.62,1.76-1.04l-1.14-9.36c.04-.49-1.16-.93-1.82-.9l-45.84,2.17c-.61.03-1.09.41-1.07.86l.34,9.21c.02.45.53.8,1.14.78Z"/>
    </g>
  </g>
</svg>