<?xml version="1.0" encoding="UTF-8"?>
<svg id="_레이어_2" data-name="레이어 2" xmlns="http://www.w3.org/2000/svg" viewBox="0 0 584.65 751.7">
  <defs>
    <style>
      .cls-1, .cls-2, .cls-3, .cls-4, .cls-5, .cls-6, .cls-7, .cls-8, .cls-9 {
        stroke-miterlimit: 10;
      }

      .cls-1, .cls-3, .cls-6, .cls-10, .cls-8 {
        fill: #1b144b;
      }

      .cls-1, .cls-11, .cls-9 {
        stroke: #1b144b;
      }

      .cls-2, .cls-12, .cls-3, .cls-13, .cls-7 {
        stroke-width: 4px;
      }

      .cls-2, .cls-3, .cls-4, .cls-5, .cls-6, .cls-7, .cls-8 {
        stroke: #000;
      }

      .cls-2, .cls-4, .cls-5 {
        fill: #efeff0;
      }

      .cls-12, .cls-14, .cls-13, .cls-15, .cls-16, .cls-11, .cls-17 {
        stroke-linejoin: round;
      }

      .cls-12, .cls-14, .cls-13, .cls-15, .cls-16, .cls-17 {
        stroke: #231815;
        stroke-linecap: round;
      }

      .cls-12, .cls-15 {
        fill: #fcb811;
      }

      .cls-4, .cls-14, .cls-15, .cls-16, .cls-8, .cls-11, .cls-17 {
        stroke-width: 5px;
      }

      .cls-5, .cls-6 {
        stroke-width: 3px;
      }

      .cls-14 {
        fill: #fff;
      }

      .cls-13 {
        fill: #d83930;
      }

      .cls-18 {
        fill: #5d391c;
      }

      .cls-7, .cls-11, .cls-9, .cls-17 {
        fill: none;
      }

      .cls-16 {
        fill: #906351;
      }

      .cls-9 {
        stroke-width: 2px;
      }
    </style>
  </defs>
  <g id="_레이어_1-2" data-name="레이어 1">
    <path class="cls-15" d="M260.31,706.59c-.03-.08-.08-.15-.13-.22-.58-1.12-1.17-2.13-1.77-3.16-.41-.67-.77-1.31-1.17-1.98-10.72-17.06-23.12-19.15-26.34-19.38-.26,0-.52-.03-.82-.03h0c-.25,0-.53.03-.8.03-3.22.24-15.6,2.32-26.33,19.38-.4.67-.8,1.31-1.17,1.98-.59,1.03-1.2,2.04-1.77,3.16-.03.06-.09.14-.14.22-9.85,18.48-13.32,39.9,21.45,42.28,3.12.22,6.04.31,8.76.32,2.75-.01,5.66-.11,8.78-.32,34.76-2.38,31.31-23.81,21.45-42.28Z"/>
    <path class="cls-15" d="M386.88,706.59c-.05-.08-.08-.15-.13-.22-.59-1.12-1.17-2.13-1.77-3.16-.38-.67-.77-1.31-1.18-1.98-10.71-17.06-23.1-19.15-26.33-19.38-.27,0-.52-.03-.79-.03h-.02c-.26,0-.53.03-.79.03-3.22.24-15.62,2.32-26.34,19.38-.4.67-.79,1.31-1.17,1.98-.61,1.03-1.18,2.04-1.77,3.16-.04.06-.08.14-.12.22-9.87,18.48-13.34,39.9,21.41,42.28,3.15.22,6.04.31,8.77.32,2.76-.01,5.65-.11,8.8-.32,34.75-2.38,31.29-23.81,21.42-42.28Z"/>
    <path class="cls-14" d="M404.38,527.67h-217.72s-38.15,92.82.4,153.99c10.01,17.29,29.43,38.73,62.65,32.61.07-.02.13-.03.21-.05,2.57-.48,5.23-1.17,7.95-1.99,8.23-2.69,16.53-7.01,20.88-9.42,2.98-1.93,8.83-5.02,16.15-5.19.22.01.42.05.63.05s.4-.03.6-.05c7.32.17,13.18,3.25,16.15,5.19,4.34,2.41,12.64,6.73,20.87,9.42,2.73.83,5.39,1.51,7.95,1.99.1.02.15.03.23.05,33.21,6.12,52.63-15.32,62.62-32.61,38.6-61.17.42-153.99.42-153.99Z"/>
    <path class="cls-14" d="M324.19,692.81s-9.25,6.8-31.43,6.8h-.37c-22.17,0-31.43-6.8-31.43-6.8"/>
    <path class="cls-14" d="M147.83,554.25c-5.35,22.89-22.49,107.44,15.29,113.66.15.01.3.05.45.06.35.05.69.09,1.04.13l1.55.11c36.9,2.69,37.57-72.38,37.57-72.38"/>
    <path class="cls-14" d="M444.89,554.25c5.34,22.89,22.48,107.44-15.3,113.66-.15.01-.29.05-.46.06-.34.05-.69.09-1.03.13l-1.55.11c-36.91,2.69-37.58-72.38-37.58-72.38"/>
    <g>
      <path class="cls-2" d="M138.83,626.39l42.97,9.04,5.45-25.87s-11.6,47.75-7.39,58.35c4.91,12.36,15.85,25.33,15.85,25.33,0,0,69.8,6.82,92.31,7.72,16.73.67,107.94-5.11,107.94-5.11,0,0,14.15-13.21,16.29-29.88.67-5.25-5.18-34.36-11.51-60.77-.9-3.75,6.17,25.87,5.28,22.21-.94-3.82,49.33-13.89,49.1-17.58-2.79-44.66-11.95-55.93-11.95-55.93-.95-1.86-56.44-2.13-56.44-2.13h-239.52s-6.46,27.44-7.5,36.6c-1.07,9.5-.87,38.03-.87,38.03Z"/>
      <path class="cls-3" d="M232.78,554.86l37.29,45.21c2.79,2.65,4.89,1.64,6.63-.93l11.96-13.18-20.06-31.68-35.83.58Z"/>
      <path class="cls-3" d="M307.72,554.99l-19.05,30.97,13.28,16.12c.9,1,2.4.88,3.08-.25l34.74-47.07-32.05.22Z"/>
      <g>
        <path class="cls-10" d="M339.8,585.85c-1.4-.05-2.55,1-2.58,2.37l-.17,10c-.03,1.83-1.59,3.25-3.49,3.19-1.89-.08-3.4-1.62-3.37-3.45l.18-10c.03-1.35-1.09-2.5-2.51-2.56-1.39-.04-2.55,1.02-2.58,2.38l-.16,9.99c-.08,4.55,3.68,8.38,8.37,8.56,4.69.18,8.58-3.37,8.66-7.92l.17-10c.02-1.36-1.1-2.5-2.51-2.55Z"/>
        <path class="cls-10" d="M360.07,594.66c.08-4.53-3.67-8.37-8.36-8.55-4.63-.17-8.46,3.28-8.65,7.72,0,.03,0,.06,0,.1v.09s0,.01,0,.01l-.08,4.34h0v.06c-.08,4.54,3.67,8.38,8.37,8.55,4.62.17,8.46-3.27,8.65-7.71,0-.03,0-.06,0-.09v-.1h0l.07-4.36h0v-.06ZM351.43,602.07c-1.89-.07-3.4-1.62-3.37-3.44l.08-4.41c.03-1.82,1.6-3.26,3.48-3.18,1.89.08,3.4,1.61,3.37,3.44l-.08,4.42c-.03,1.82-1.59,3.26-3.48,3.18Z"/>
        <path class="cls-10" d="M374.71,596.92l-8.6-3.45c.57-1.11,1.77-1.87,3.15-1.82l4.67.18c1.4.05,2.56-1.02,2.58-2.37.03-1.36-1.1-2.5-2.5-2.56l-4.65-.17c-4.7-.18-8.58,3.37-8.66,7.92,0,.01,0,.04,0,.07-.08,1.04.54,2.08,1.61,2.5l8.71,3.49c-.51,1.25-1.78,2.1-3.26,2.05l-4.66-.17c-1.4-.05-2.56,1.01-2.58,2.36-.03,1.36,1.09,2.51,2.5,2.55l4.66.18c4.7.18,8.57-3.38,8.65-7.92,0-.08,0-.17,0-.25.12-1.07-.51-2.16-1.61-2.6Z"/>
      </g>
      <path class="cls-7" d="M287.26,584.96s5.03,8.51,5.18,46.1c.14,35.24,1.28,62.91-.05,68.55"/>
    </g>
    <g>
      <path class="cls-16" d="M542.36,103.37c-.66-2.95-1.1-4.58-1.1-4.58-10.91,10.35-22.99,17.22-34.59,21.73-.61.23-1.2.45-1.78.69-.16.05-.31.11-.48.15-29.53,10.16-67.82-.63-85.36-6.75-1.64-.62-3.25-1.22-4.87-1.85h0l-.21-.08c-1.37-.52-2.75-1.03-4.11-1.54-.18-.08-.33-.13-.35-.14h-.01c-3.17-1.18-6.22-2.24-9.3-3.33-.07-.02-.14-.08-.19-.09-1.21-.44-4.17-1.48-7.52-2.67-.27-.12-.49-.23-.8-.34-2.06-.75-4.21-1.48-6.37-2.23-.26-.09-.55-.2-.82-.28h0s-.11-.02-.15-.04c-2.53-.89-4.52-1.6-5.45-1.94h-.02c-.11-.04-.21-.09-.33-.1-.08-.04-.3-.12-.3-.12h0c-3.68-1.25-7.44-2.44-11.3-3.57l-.6-.21v.03c-.28-.08-.57-.14-.84-.21-.71-.22-1.2-.38-1.2-.38l-.05.06c-21.46-6.12-45.5-10.33-71.76-10.53-.02,0-.08,0-.12.02h-.12c-107.73.32-179.87,66.96-179.87,66.96-5.48,5.22-10.53,10.44-15.13,15.53-104.23,105.63-34.23,241.92-1.4,293.05,0,0,17.01,26.49,35.14,60.34h-.58c-1.91,4.99-2.98,10.46-2.98,16.26-.06,22.48,15.89,40.75,35.58,40.79,14.8.04,27.53-10.22,32.96-24.88,5.35,14.65,18.03,24.96,32.83,25.03,13.18.03,24.71-8.13,30.9-20.25,6.14,12.14,17.64,20.32,30.82,20.37,13.41.03,25.1-8.41,31.23-20.87,6.06,12.49,17.72,20.98,31.13,21,15.27,0,28.3-10.9,33.44-26.28,5.06,15.39,18.06,26.4,33.31,26.4,19.72.05,35.72-18.15,35.75-40.63.02-5.6-.97-10.99-2.76-15.85h-.94c0-.06.03-.12.03-.12,18.36-33.91,35.55-60.48,35.55-60.48,25.01-38.6,71.29-125.83,47.5-211.95,9.37-22.29,13.32-46.1,14.36-68.07,2.06-30.19-1.93-57.52-6.76-78.05Z"/>
      <path class="cls-17" d="M503.74,185.97s23.74,31.68,31.02,63.5"/>
    </g>
    <g>
      <path class="cls-14" d="M483.96,312.62c0,88.59-84.16,160.41-187.97,160.41s-188.01-71.82-188.01-160.41,84.16-160.44,188.01-160.44,187.97,71.84,187.97,160.44Z"/>
      <path class="cls-18" d="M384.55,262.58c0,12.14-7.04,21.97-15.71,21.97s-15.7-9.83-15.7-21.97,7.03-21.98,15.7-21.98,15.71,9.85,15.71,21.98Z"/>
      <path class="cls-18" d="M238.5,262.58c0,12.14-7.03,21.97-15.69,21.97s-15.7-9.83-15.7-21.97,7.03-21.98,15.7-21.98,15.69,9.85,15.69,21.98Z"/>
      <path class="cls-12" d="M348.91,318.32c0,42.92-23.52,77.74-52.54,77.74s-52.56-34.82-52.56-77.74,23.52-77.73,52.56-77.73,52.54,34.79,52.54,77.73Z"/>
      <path class="cls-13" d="M330.82,308.04c-1.15-2.4-3.69-4.03-8.76-3.4h-.07c-7.63,1.33-16.26,2.18-25.62,2.35-9.37-.17-17.98-1.03-25.63-2.35h-.07c-5.08-.63-7.61,1-8.79,3.4-.34,1-1.65,5.57.94,12.76.57,1.39,1.25,2.99,2.07,4.74,0,.05.04.09.04.14,4.49,9.72,12.35,23.88,22.05,28.93.03.02,3.95,2.88,9.39,2.85,5.42.02,9.35-2.84,9.38-2.85,9.7-5.05,17.58-19.21,22.05-28.93.01-.06.02-.09.04-.14.83-1.75,1.51-3.35,2.07-4.74,2.6-7.2,1.27-11.77.92-12.76Z"/>
      <g>
        <path class="cls-18" d="M141.75,305.95c-.31,0-.6-.06-.88-.2-1-.49-1.4-1.67-.91-2.67l11.4-23.37c.49-1,1.69-1.39,2.67-.92.99.48,1.4,1.67.92,2.67l-11.4,23.37c-.35.72-1.07,1.12-1.79,1.12Z"/>
        <path class="cls-18" d="M158.36,306.19c-.3,0-.59-.07-.87-.2-.99-.48-1.4-1.67-.92-2.67l11.39-23.39c.48-.99,1.7-1.39,2.67-.92,1,.48,1.41,1.68.92,2.66l-11.39,23.39c-.35.71-1.06,1.12-1.8,1.12Z"/>
        <path class="cls-18" d="M174.87,306.44c-.3,0-.6-.07-.88-.2-.99-.48-1.4-1.68-.92-2.66l11.41-23.39c.48-1,1.68-1.39,2.67-.92.98.48,1.41,1.67.91,2.67l-11.39,23.38c-.35.7-1.07,1.12-1.79,1.12Z"/>
      </g>
      <g>
        <path class="cls-18" d="M391.43,305.95c-.3,0-.59-.06-.88-.2-1-.49-1.4-1.67-.92-2.67l11.4-23.37c.49-1,1.71-1.39,2.67-.92,1,.48,1.4,1.67.91,2.67l-11.4,23.37c-.35.72-1.05,1.12-1.79,1.12Z"/>
        <path class="cls-18" d="M408.04,306.19c-.29,0-.59-.07-.87-.2-.99-.48-1.4-1.67-.92-2.67l11.39-23.39c.49-.99,1.69-1.39,2.67-.92.99.48,1.4,1.68.92,2.66l-11.41,23.39c-.34.71-1.04,1.12-1.79,1.12Z"/>
        <path class="cls-18" d="M424.55,306.44c-.3,0-.6-.07-.88-.2-1-.48-1.41-1.68-.93-2.66l11.41-23.39c.5-1,1.7-1.39,2.67-.92.99.48,1.41,1.67.91,2.67l-11.39,23.38c-.35.7-1.05,1.12-1.79,1.12Z"/>
      </g>
    </g>
    <path class="cls-4" d="M27.11,201.53s-47.04-78.88-11.06-113.23C56.48,49.7,117.29,11.76,206.23,3.9c66.09-5.84,152.78,7.91,213.28,17.89,75.21,12.41,134.73,36.02,150.31,68.3,34.54,71.58-14.49,108.33-14.49,108.33,0,0-139.6-89.51-271.14-85.28-104.83,3.37-257.08,88.39-257.08,88.39Z"/>
    <path class="cls-8" d="M27.11,201.53c3.05-48.1,119.88-87.32,257.08-88.39s271.21,37.64,271.14,85.28c-.08,55.05-13.67,71.7-13.67,71.7-8.63-22.35-133.24-75.04-259.87-67.01-141.5,8.97-233.44,51.7-239.19,71.35-4.74,16.19-17.78-36.73-15.49-72.93Z"/>
    <path class="cls-6" d="M180.11,643.09l-40.88-4.92c-1.17-.28-1.43-.07-2.18-1.37l-1.67-10.52c.62-1.82,2.89-3.02,4.24-2.75l40.72,4.42c1.75.54,3.97.97,4.24,2.99l-.89,9.28c-.59,1.92-2.19,3.2-3.59,2.87Z"/>
    <path class="cls-6" d="M407.97,621.86l44.53-12.88c1.33-.23,1.52-.55,2.88.43l2.76,12.34c-2.35,3.32-3.81,4.68-5.34,4.99l-38.2,10.5c-2.05.22-4.56.75-5.75-1.17l-3.31-9.76c-.27-2.19.81-4.19,2.41-4.46Z"/>
    <g>
      <rect class="cls-5" x="204.17" y="649.58" width="43.14" height="23.84" rx="2.2" ry="2.2" transform="translate(24.43 -7.84) rotate(2.1)"/>
      <path class="cls-6" d="M249.17,651.41l-46.63-1.71c-.58-.02-1.72-.62-1.76-1.04l1.14-9.36c-.04-.49,1.16-.93,1.82-.9l45.84,2.17c.61.03,1.09.41,1.07.86l-.34,9.21c-.02.45-.53.8-1.14.78Z"/>
    </g>
    <g>
      <rect class="cls-5" x="346.92" y="649.97" width="43.14" height="23.84" rx="2.2" ry="2.2" transform="translate(761.022 1309.8095) rotate(177.8966)"/>
      <path class="cls-6" d="M345.06,651.8l46.63-1.71c.58-.02,1.72-.62,1.76-1.04l-1.14-9.36c.04-.49-1.16-.93-1.82-.9l-45.84,2.17c-.61.03-1.09.41-1.07.86l.34,9.21c.02.45.53.8,1.14.78Z"/>
    </g>
    <path class="cls-4" d="M26.97,224.07c3.04-7.1,110.97-58.58,250.04-65.67s277.06,55.87,277.15,66.29c.21,25.27-3.3,24.08-3.3,24.08-4.53-9.65-146.18-75.25-272.67-68.91-141.35,7.08-228.23,59.5-245.84,68.72-5.48,2.87-6.46-21.98-5.38-24.51Z"/>
    <g>
      <circle class="cls-9" cx="293.17" cy="24.8" r="10.71"/>
      <rect class="cls-1" x="267.45" y="47.55" width="51.44" height="13.05"/>
      <g>
        <path class="cls-11" d="M292,34.86v61.92c-19.8-1.99-27.29-14.57-30.05-25.12"/>
        <path class="cls-10" d="M262.83,74.91l-6.09,4.87-.18-.21,2.9-11.33c.34-3.86.69-7.72,1.03-11.59,1.31,3.65,2.62,7.3,3.93,10.95l5.67,10.23-.08.24-7.16-3.17Z"/>
      </g>
      <g>
        <path class="cls-11" d="M294.13,34.86v61.92c19.8-1.99,27.29-14.57,30.05-25.12"/>
        <path class="cls-10" d="M323.3,74.91l-7.13,3.17-.12-.25,5.67-10.23c1.31-3.65,2.62-7.3,3.93-10.95.34,3.86.69,7.72,1.03,11.59l2.9,11.33-.14.21-6.13-4.88Z"/>
      </g>
    </g>
  </g>
</svg>