<?xml version="1.0" encoding="UTF-8"?>
<svg id="_레이어_2" data-name="레이어 2" xmlns="http://www.w3.org/2000/svg" xmlns:xlink="http://www.w3.org/1999/xlink" viewBox="0 0 616.94 768.17">
  <defs>
    <style>
      .cls-1 {
        fill: #4868a6;
      }

      .cls-1, .cls-2 {
        stroke-width: 3px;
      }

      .cls-1, .cls-2, .cls-3, .cls-4, .cls-5 {
        stroke-miterlimit: 10;
      }

      .cls-1, .cls-3, .cls-4 {
        stroke: #000;
      }

      .cls-6, .cls-7, .cls-8, .cls-9, .cls-10, .cls-11, .cls-12, .cls-13 {
        stroke-linecap: round;
        stroke-linejoin: round;
      }

      .cls-6, .cls-7, .cls-8, .cls-9, .cls-10, .cls-11, .cls-13 {
        stroke: #231815;
      }

      .cls-6, .cls-8 {
        stroke-width: 4px;
      }

      .cls-6, .cls-10 {
        fill: #fcb811;
      }

      .cls-14, .cls-2, .cls-7, .cls-12 {
        fill: #fff;
      }

      .cls-2, .cls-5 {
        stroke: #fff;
      }

      .cls-3 {
        fill: #e66833;
      }

      .cls-3, .cls-4, .cls-7, .cls-9, .cls-10, .cls-11, .cls-13 {
        stroke-width: 5px;
      }

      .cls-4 {
        fill: #6f7899;
      }

      .cls-8 {
        fill: #d83930;
      }

      .cls-9 {
        fill: url(#_무제_그라디언트_187);
      }

      .cls-15 {
        fill: #5d391c;
      }

      .cls-5 {
        fill: #f16833;
      }

      .cls-5, .cls-12 {
        stroke-width: 2px;
      }

      .cls-11 {
        fill: #906351;
      }

      .cls-12 {
        stroke: #902749;
      }

      .cls-13 {
        fill: none;
      }
    </style>
    <linearGradient id="_무제_그라디언트_187" data-name="무제 그라디언트 187" x1="134.36" y1="714.76" x2="376.1" y2="714.76" gradientUnits="userSpaceOnUse">
      <stop offset=".01" stop-color="#0071bc"/>
      <stop offset=".05" stop-color="#2588c9"/>
      <stop offset=".1" stop-color="#5ba9dc"/>
      <stop offset=".15" stop-color="#86c3eb"/>
      <stop offset=".19" stop-color="#a5d6f6"/>
      <stop offset=".23" stop-color="#b8e1fc"/>
      <stop offset=".26" stop-color="#bfe6ff"/>
      <stop offset=".29" stop-color="#b6e0fb"/>
      <stop offset=".34" stop-color="#9fd1f2"/>
      <stop offset=".4" stop-color="#79b9e4"/>
      <stop offset=".47" stop-color="#4498cf"/>
      <stop offset=".51" stop-color="#2182c2"/>
      <stop offset=".55" stop-color="#4096d1"/>
      <stop offset=".62" stop-color="#68b1e4"/>
      <stop offset=".68" stop-color="#86c4f3"/>
      <stop offset=".73" stop-color="#98d0fb"/>
      <stop offset=".77" stop-color="#9fd5ff"/>
      <stop offset=".81" stop-color="#9ad1fc"/>
      <stop offset=".86" stop-color="#8dc8f4"/>
      <stop offset=".91" stop-color="#77b8e8"/>
      <stop offset=".96" stop-color="#58a3d6"/>
      <stop offset="1" stop-color="#4092c8"/>
    </linearGradient>
  </defs>
  <g id="_레이어_1-2" data-name="레이어 1">
    <path class="cls-10" d="M220.55,723.06c-.03-.08-.08-.15-.13-.22-.58-1.12-1.17-2.13-1.77-3.16-.41-.67-.77-1.31-1.17-1.98-10.72-17.06-23.12-19.15-26.34-19.38-.26,0-.52-.03-.82-.03h0c-.25,0-.53.03-.8.03-3.22.24-15.6,2.32-26.33,19.38-.4.67-.8,1.31-1.17,1.98-.59,1.03-1.2,2.04-1.77,3.16-.03.06-.09.14-.14.22-9.85,18.48-13.32,39.9,21.45,42.28,3.12.22,6.04.31,8.76.32,2.75-.01,5.66-.11,8.78-.32,34.76-2.38,31.31-23.81,21.45-42.28Z"/>
    <path class="cls-10" d="M347.12,723.06c-.05-.08-.08-.15-.13-.22-.59-1.12-1.17-2.13-1.77-3.16-.38-.67-.77-1.31-1.18-1.98-10.71-17.06-23.1-19.15-26.33-19.38-.27,0-.52-.03-.79-.03h-.02c-.26,0-.53.03-.79.03-3.22.24-15.62,2.32-26.34,19.38-.4.67-.79,1.31-1.17,1.98-.61,1.03-1.18,2.04-1.77,3.16-.04.06-.08.14-.12.22-9.87,18.48-13.34,39.9,21.41,42.28,3.15.22,6.04.31,8.77.32,2.76-.01,5.65-.11,8.8-.32,34.75-2.38,31.29-23.81,21.42-42.28Z"/>
    <path class="cls-7" d="M364.62,544.14h-217.72s-38.15,92.82.4,153.99c10.01,17.29,29.43,38.73,62.65,32.61.07-.02.13-.03.21-.05,2.57-.48,5.23-1.17,7.95-1.99,8.23-2.69,16.53-7.01,20.88-9.42,2.98-1.93,8.83-5.02,16.15-5.19.22.01.42.05.63.05s.4-.03.6-.05c7.32.17,13.18,3.25,16.15,5.19,4.34,2.41,12.64,6.73,20.87,9.42,2.73.83,5.39,1.51,7.95,1.99.1.02.15.03.23.05,33.21,6.12,52.63-15.32,62.62-32.61,38.6-61.17.42-153.99.42-153.99Z"/>
    <path class="cls-7" d="M284.43,709.28s-9.25,6.8-31.43,6.8h-.37c-22.17,0-31.43-6.8-31.43-6.8"/>
    <path class="cls-7" d="M107.71,544.14c-11.2,11.65-21.47,72.29-50.79,73.52s-3.32,24.28,5.83,31.98c.12.09.23.19.35.28.28.22.54.43.83.64l1.27.88c17.42,4.16,27.97-2.81,38.93-10.38,19.39-13.4,30.36-32.62,30.36-32.62"/>
    <path class="cls-3" d="M130.46,643.78c1.84,14.21,7.21,34.66,7.21,34.66,0,0,79.85,4.4,102.28,4.62,16.68.17,131.6.01,131.6.01,0,0,18.38-33.09,8.82-73.27-.72-3.01-5.14-43.24-5.14-43.24-.9-1.47-35.49,5.25-35.49,5.25l-54.99,8.13-29.88,20.24-38.71-22.61-75.74-8.11s-14.08,42.48-9.96,74.31Z"/>
    <path class="cls-7" d="M406.12,556.75c11.2,11.65,21.47,72.29,50.79,73.52s3.32,24.28-5.83,31.98c-.12.09-.23.19-.35.28-.28.22-.54.43-.83.64l-1.27.88c-17.42,4.16-27.97-2.81-38.93-10.38-19.39-13.4-30.36-32.62-30.36-32.62"/>
    <g>
      <path class="cls-11" d="M502.6,119.84c-.66-2.95-1.1-4.58-1.1-4.58-10.91,10.35-22.99,17.22-34.59,21.73-.61.23-1.2.45-1.78.69-.16.05-.31.11-.48.15-29.53,10.16-67.82-.63-85.36-6.75-1.64-.62-3.25-1.22-4.87-1.85h0l-.21-.08c-1.37-.52-2.75-1.03-4.11-1.54-.18-.08-.33-.13-.35-.14h-.01c-3.17-1.18-6.22-2.24-9.3-3.33-.07-.02-.14-.08-.19-.09-1.21-.44-4.17-1.48-7.52-2.67-.27-.12-.49-.23-.8-.34-2.06-.75-4.21-1.48-6.37-2.23-.26-.09-.55-.2-.82-.28h0s-.11-.02-.15-.04c-2.53-.89-4.52-1.6-5.45-1.94h-.02c-.11-.04-.21-.09-.33-.1-.08-.04-.3-.12-.3-.12h0c-3.68-1.25-7.44-2.44-11.3-3.57l-.6-.21v.03c-.28-.08-.57-.14-.84-.21-.71-.22-1.2-.38-1.2-.38l-.05.06c-21.46-6.12-45.5-10.33-71.76-10.53-.02,0-.08,0-.12.02h-.12c-107.73.32-179.87,66.96-179.87,66.96-5.48,5.22-10.53,10.44-15.13,15.53-104.23,105.63-34.23,241.92-1.4,293.05,0,0,17.01,26.49,35.14,60.34h-.58c-1.91,4.99-2.98,10.46-2.98,16.26-.06,22.48,15.89,40.75,35.58,40.79,14.8.04,27.53-10.22,32.96-24.88,5.35,14.65,18.03,24.96,32.83,25.03,13.18.03,24.71-8.13,30.9-20.25,6.14,12.14,17.64,20.32,30.82,20.37,13.41.03,25.1-8.41,31.23-20.87,6.06,12.49,17.72,20.98,31.13,21,15.27,0,28.3-10.9,33.44-26.28,5.06,15.39,18.06,26.4,33.31,26.4,19.72.05,35.72-18.15,35.75-40.63.02-5.6-.97-10.99-2.76-15.85h-.94c0-.06.03-.12.03-.12,18.36-33.91,35.55-60.48,35.55-60.48,25.01-38.6,71.29-125.83,47.5-211.95,9.37-22.29,13.32-46.1,14.36-68.07,2.06-30.19-1.93-57.52-6.76-78.05Z"/>
      <path class="cls-13" d="M463.98,202.44s23.74,31.68,31.02,63.5"/>
    </g>
    <g>
      <path class="cls-7" d="M444.2,329.09c0,88.59-84.16,160.41-187.97,160.41s-188.01-71.82-188.01-160.41,84.16-160.44,188.01-160.44,187.97,71.84,187.97,160.44Z"/>
      <path class="cls-15" d="M344.79,279.05c0,12.14-7.04,21.97-15.71,21.97s-15.7-9.83-15.7-21.97,7.03-21.98,15.7-21.98,15.71,9.85,15.71,21.98Z"/>
      <path class="cls-15" d="M198.74,279.05c0,12.14-7.03,21.97-15.69,21.97s-15.7-9.83-15.7-21.97,7.03-21.98,15.7-21.98,15.69,9.85,15.69,21.98Z"/>
      <path class="cls-6" d="M309.15,334.79c0,42.92-23.52,77.74-52.54,77.74s-52.56-34.82-52.56-77.74,23.52-77.73,52.56-77.73,52.54,34.79,52.54,77.73Z"/>
      <path class="cls-8" d="M291.07,324.51c-1.15-2.4-3.69-4.03-8.76-3.4h-.07c-7.63,1.33-16.26,2.18-25.62,2.35-9.37-.17-17.98-1.03-25.63-2.35h-.07c-5.08-.63-7.61,1-8.79,3.4-.34,1-1.65,5.57.94,12.76.57,1.39,1.25,2.99,2.07,4.74,0,.05.04.09.04.14,4.49,9.72,12.35,23.88,22.05,28.93.03.02,3.95,2.88,9.39,2.85,5.42.02,9.35-2.84,9.38-2.85,9.7-5.05,17.58-19.21,22.05-28.93.01-.06.02-.09.04-.14.83-1.75,1.51-3.35,2.07-4.74,2.6-7.2,1.27-11.77.92-12.76Z"/>
      <g>
        <path class="cls-15" d="M101.99,322.43c-.31,0-.6-.06-.88-.2-1-.49-1.4-1.67-.91-2.67l11.4-23.37c.49-1,1.69-1.39,2.67-.92.99.48,1.4,1.67.92,2.67l-11.4,23.37c-.35.72-1.07,1.12-1.79,1.12Z"/>
        <path class="cls-15" d="M118.61,322.66c-.3,0-.59-.07-.87-.2-.99-.48-1.4-1.67-.92-2.67l11.39-23.39c.48-.99,1.7-1.39,2.67-.92,1,.48,1.41,1.68.92,2.66l-11.39,23.39c-.35.71-1.06,1.12-1.8,1.12Z"/>
        <path class="cls-15" d="M135.11,322.91c-.3,0-.6-.07-.88-.2-.99-.48-1.4-1.68-.92-2.66l11.41-23.39c.48-1,1.68-1.39,2.67-.92.98.48,1.41,1.67.91,2.67l-11.39,23.38c-.35.7-1.07,1.12-1.79,1.12Z"/>
      </g>
      <g>
        <path class="cls-15" d="M351.67,322.43c-.3,0-.59-.06-.88-.2-1-.49-1.4-1.67-.92-2.67l11.4-23.37c.49-1,1.71-1.39,2.67-.92,1,.48,1.4,1.67.91,2.67l-11.4,23.37c-.35.72-1.05,1.12-1.79,1.12Z"/>
        <path class="cls-15" d="M368.29,322.66c-.29,0-.59-.07-.87-.2-.99-.48-1.4-1.67-.92-2.67l11.39-23.39c.49-.99,1.69-1.39,2.67-.92.99.48,1.4,1.68.92,2.66l-11.41,23.39c-.34.71-1.04,1.12-1.79,1.12Z"/>
        <path class="cls-15" d="M384.8,322.91c-.3,0-.6-.07-.88-.2-1-.48-1.41-1.68-.93-2.66l11.41-23.39c.5-1,1.7-1.39,2.67-.92.99.48,1.41,1.67.91,2.67l-11.39,23.38c-.35.7-1.05,1.12-1.79,1.12Z"/>
      </g>
    </g>
    <path class="cls-5" d="M134.49,644.85s87.9,5.51,117.88,6.19c31.29.71,126.96-.85,126.96-.85"/>
    <path class="cls-5" d="M132.05,626.3s87.47,5.59,117.45,6.27c31.29.71,129.98-1.21,129.98-1.21"/>
    <path class="cls-5" d="M134.52,604.76s87.94,5.59,117.48,6.27c30.83.71,125.79-2.62,125.79-2.62"/>
    <g>
      <path class="cls-14" d="M322.71,611.17c-1.4-.01-2.53,1.07-2.52,2.43l.09,10c.02,1.83-1.5,3.29-3.4,3.27-1.89-.03-3.44-1.53-3.46-3.36l-.08-10c0-1.35-1.16-2.47-2.58-2.49-1.39,0-2.52,1.08-2.52,2.44l.09,9.99c.04,4.55,3.89,8.28,8.58,8.34,4.69.06,8.49-3.59,8.45-8.14l-.08-10c-.02-1.36-1.16-2.47-2.58-2.49Z"/>
      <path class="cls-14" d="M343.2,619.45c-.03-4.53-3.89-8.28-8.58-8.33-4.63-.05-8.37,3.5-8.45,7.94,0,.03,0,.06,0,.1v.09s0,0,0,0l.04,4.34h0v.06c.04,4.54,3.89,8.28,8.58,8.33,4.63.05,8.37-3.49,8.45-7.94,0-.03,0-.06,0-.09v-.1h0l-.04-4.36h0v-.06ZM334.75,627.08c-1.89-.02-3.44-1.54-3.46-3.35l-.04-4.41c-.02-1.82,1.51-3.3,3.39-3.27,1.89.03,3.44,1.52,3.46,3.35l.03,4.42c.02,1.82-1.5,3.3-3.39,3.27Z"/>
      <path class="cls-14" d="M357.9,621.33l-8.69-3.23c.54-1.13,1.72-1.91,3.1-1.9l4.67.06c1.4,0,2.53-1.08,2.52-2.43,0-1.36-1.16-2.47-2.56-2.49l-4.66-.05c-4.7-.05-8.49,3.59-8.45,8.14,0,.01,0,.04,0,.07-.05,1.04.6,2.07,1.68,2.46l8.8,3.27c-.48,1.26-1.73,2.15-3.2,2.13l-4.66-.05c-1.4-.01-2.53,1.07-2.52,2.43,0,1.36,1.16,2.48,2.56,2.49l4.67.06c4.7.06,8.48-3.6,8.44-8.14,0-.08,0-.17-.01-.25.1-1.07-.57-2.15-1.68-2.55Z"/>
    </g>
    <path class="cls-5" d="M138.57,663.7s87.9,5.51,117.88,6.19c31.29.71,118.78-.78,118.78-.78"/>
    <path class="cls-2" d="M256.11,607.16l-11.99,17.82c-.13.19-.34.31-.58.31l-34.87.4c-.74,0-.97,1-.31,1.33l25.66,13.11c.41.21.51.74.21,1.09l-23.04,26.72c-.47.54.08,1.36.76,1.13l44.06-14.83c.16-.05.33-.05.48.01l35.58,13.79c.64.25,1.22-.47.84-1.04l-16.77-25.41c-.23-.35-.11-.83.27-1.02l24.96-12.68c.65-.33.43-1.31-.3-1.33l-32.99-.96c-.25,0-.47-.14-.59-.36l-10.18-18.03c-.26-.46-.91-.48-1.2-.05Z"/>
    <line class="cls-12" x1="254.87" y1="600.18" x2="254.87" y2="681.94"/>
    <polygon class="cls-9" points="137.67 678.44 134.36 726.61 141.24 732.74 137.66 738.63 143.6 744.61 140.14 750.78 233.14 748.57 238.33 744.9 234.55 734.84 245.96 715.67 265.1 716.22 271.8 735.15 275.58 738.67 272.35 744.12 275.54 746.02 365.69 751.08 372.52 748.39 368.04 743.23 372.77 739.7 370.13 733.13 376.1 727.17 371.55 683.07 137.67 678.44"/>
    <g>
      <rect class="cls-1" x="144.11" y="707.74" width="28.4" height="18.21" rx="2.2" ry="2.2" transform="translate(26.42 -5.33) rotate(2.1)"/>
      <path class="cls-1" d="M173.78,709.05l-30.7-1.13c-.38-.01-1.13-.47-1.15-.79l.79-7.15c-.03-.37.77-.71,1.2-.69l30.18,1.48c.4.02.71.31.7.65l-.26,7.03c-.01.35-.35.61-.76.6Z"/>
    </g>
    <g>
      <rect class="cls-1" x="336.98" y="707.58" width="28.4" height="18.21" rx="2.2" ry="2.2" transform="translate(728.4404 1420.0027) rotate(177.8966)"/>
      <path class="cls-1" d="M335.72,708.89l30.7-1.13c.38-.01,1.13-.47,1.15-.79l-.79-7.15c.03-.37-.77-.71-1.2-.69l-30.18,1.48c-.4.02-.71.31-.7.65l.26,7.03c.01.35.35.61.76.6Z"/>
    </g>
    <g>
      <path class="cls-4" d="M12.49,254.62c-6.28,12.4-3.38-150.54,17.02-169.64C71.74,45.41,114.54,24.2,217.32,28.82c85.1,3.82,185.26,9,217.4,36.56,42.25,36.23,60.47,191.69,60.47,191.69,0,0-154-36.35-290.67-27.32-100.45,6.63-184.68,10.36-192.03,24.87Z"/>
      <path class="cls-4" d="M489.98,221.73c67.49,3.37,125.95,37.08,124.44,40.89-1.64,4.14-199.8-4.2-236.02-9.26-143.96-20.12-207.72-22.17-207.72-22.17-.07-4.45,37.11-17.37,93.3-18.46,65.13-1.27,153.95,5.4,226,9.01Z"/>
      <path class="cls-4" d="M256.63,23.81c0,7.37-7.98,5.38-20.7,5.38s-22.81,1.06-22.81-6.31-4.04-20.38,22.81-20.38c23.14,0,20.7,13.94,20.7,21.31Z"/>
      <path class="cls-4" d="M234.62,28.19s-40,44.31-56.89,97.51c-13.63,42.95-7.05,105.48-7.05,105.48"/>
    </g>
  </g>
</svg>