<?xml version="1.0" encoding="UTF-8"?>
<svg id="_레이어_2" data-name="레이어 2" xmlns="http://www.w3.org/2000/svg" viewBox="0 0 759.27 335.12">
  <defs>
    <style>
      .cls-1 {
        fill: #dfd5a3;
        stroke: #42210b;
        stroke-miterlimit: 10;
        stroke-width: 4px;
      }
    </style>
  </defs>
  <g id="_레이어_4" data-name="레이어 4">
    <g>
      <polygon class="cls-1" points="48.91 43.6 3.32 106.96 11.12 146.65 2.28 201.11 117.74 224.85 160.72 202.37 234 231.01 295.18 188.25 318.18 142.86 298.51 48.61 197.06 62.42 136.5 24.35 91.33 48.77 48.91 43.6"/>
      <g>
        <path d="M78.78,119.38l-32.93-4.01.47-16.4,48.22,3.42-8.95,60.28-12.29-2.91,1.6-14.66-28.63-2.52,1.92-16.53,29.54,3.06,1.07-9.72ZM118.09,93.65l.11,28.56,11.83.85-.63-28.75,13.78,1.59c2.3,34.78-3.4,78.05-3.4,78.05l-12.61-1.21s2.86-31.04,2.86-31.21l-12.76-.36-2.58,30.53-14.21-.4,3.77-77.18,13.83-.29v-.17Z"/>
        <path d="M190.7,95.71l-1.14,12.28,21.71,5.06-12.85,25.8,15.67,13.78-6.81,12.63-25-14.39-17.1,13.19-9.23-13.43,29.9-23.77-27.53-4.03-.21-15.91,16.97.65.39-13.67,15.22,1.8ZM226.54,94.67l14.95-2.65-4.07,92.22-13.33-3.63,2.44-85.94Z"/>
        <path d="M277.36,150.49l-23.08,1.57,5.9-77.98,19.22,4.82-2.03,71.59ZM255.04,166.79l23.62-1.72-.76,26.82-20.45-3.15-2.4-21.96Z"/>
      </g>
    </g>
    <g>
      <polygon class="cls-1" points="347.24 21.57 301.65 84.93 309.45 124.62 300.61 179.08 409.8 189.14 458.56 189.39 532.33 208.98 593.51 166.21 616.51 120.83 599.13 57.32 573.51 29.76 495.39 40.39 434.83 2.31 389.66 26.74 347.24 21.57"/>
      <g>
        <path d="M373.12,103.92l-32.29-3.87.45-15.76,47.28,3.31-8.74,57.92-12.05-2.81,1.56-14.09-28.07-2.44,1.87-15.89,28.96,2.96,1.04-9.34ZM411.65,79.22l.12,27.44,11.59.82-.64-27.62,13.51,1.53c2.28,33.42-3.29,75-3.29,75l-12.36-1.17s2.78-29.83,2.79-29.99l-12.51-.35-2.51,29.34-13.93-.4,3.65-74.17,13.56-.27v-.16Z"/>
        <path d="M482.85,81.24l-1.11,11.8,21.29,4.88-12.58,24.78,15.37,13.25-6.67,12.13-24.52-13.84-16.75,12.67-9.06-12.91,29.31-22.83-27-3.89-.21-15.29,16.63.64.37-13.13,14.93,1.74ZM517.99,80.27l14.66-2.54-3.94,88.62-13.07-3.49,2.34-82.58Z"/>
        <path d="M567.85,133.93l-22.63,1.49,5.74-74.93,18.85,4.64-1.95,68.79ZM545.98,149.58l23.16-1.64-.73,25.78-20.05-3.03-2.37-21.1Z"/>
      </g>
    </g>
    <g>
      <path d="M322.65,295.25l-33.54-1.44-3.78-42.39,10.09-.96.32,12.45,17.24.96,2.21-13.41,9.78.96-2.42,43.82h.11ZM314.35,274.53h-18.19l1.47,8.98h16.82v-8.98h-.1ZM300.47,303.63l45,4.43v27.06l-10.3-.48-.95-16.04-34.38-3.95.63-11.02ZM340.32,251.54l11.77-2.16-1.05,48.73-10.72-2.27v-44.3Z"/>
      <path d="M394.25,273.81l-20.4.96.42,16.28,24.08,1.8-1.79,11.73-33.96-1.08.74-39.03,31.64-1.8-.74,11.14ZM414.22,294.65l-9.25-.96-.95-13.05,10.2,1.08-1.05-25.26,10.51.24,1.68,59.99h-10.51l-.63-22.03ZM439.14,256.69l1.26,59.99h-10.2l-2.42-59.99h11.35Z"/>
      <path d="M460.8,263.4c5.99-3.59,13.46-2.87,19.24.48,5.47,2.99,9.36,8.38,10.09,15.33.84,7.06-1.05,15.09-5.57,20.24-1.89,2.16-4.31,3.47-6.83,4.31-5.05,1.56-11.46,1.2-16.19-1.32-1.05-.48-2-1.2-2.94-1.92-8.1-6.59-9.46-18.8-5.57-28.02,1.58-3.71,4.21-6.94,7.78-9.1ZM478.25,283.15c-.21-5.15-4.42-8.86-8.83-8.86-3.26,0-7.04,2.99-7.36,6.71-.95,9.1,7.15,12.57,12.2,9.82,2.52-1.44,4.1-4.55,4-7.78v.12ZM500.86,260.16l11.88-2.16-1.16,64.66-10.72-2.27v-60.23Z"/>
      <path d="M523.25,265.19l34.9-3.23,1.16,11.73-25.02,1.92-.42,5.39,24.29-1.08-.42,11.38-23.23.72.32,5.75,25.13-1.2.95,12.09-37.64,2.16v-45.62ZM579.7,315.96v-23.11l-11.88-.96v-11.73h11.88l1.58-22.51,10.72,2.27-2.63,56.04h-9.67Z"/>
      <path d="M660.45,260.88l-26.39-2.15v-11.49l38.58,1.44-5.68,42.39-9.99-1.92.95-10.18-22.92-1.2,1.16-11.73,23.66,1.68.63-6.83ZM650.25,325.42l.42-15.92h-13.56v-10.9l36.8-2.99v11.14l-13.35,2.51v15.21l-10.3.96ZM686,259.81l9.99-2.15v64.06l-9.99-.48v-61.42Z"/>
      <path d="M706.5,311.77l52.78-.6-.84,12.21-51.94-1.8v-9.82ZM709.65,286.87l20.82-20.24-16.4-1.32v-10.78l37.85.84-12.51,18.8,15.24,13.65-7.99,8.5-15.56-12.81-14.09,12.81-7.36-9.46Z"/>
    </g>
  </g>
</svg>