<?xml version="1.0" encoding="UTF-8"?>
<svg id="_레이어_2" data-name="레이어 2" xmlns="http://www.w3.org/2000/svg" viewBox="0 0 764.53 359.19">
  <defs>
    <style>
      .cls-1 {
        font-size: 119.74px;
      }

      .cls-1, .cls-2, .cls-3 {
        font-family: OkDanDan-Bold, OkDanDan;
        font-weight: 700;
      }

      .cls-2 {
        font-size: 164.24px;
      }

      .cls-4 {
        fill: #dfd5a3;
        stroke: #42210b;
        stroke-miterlimit: 10;
        stroke-width: 4px;
      }

      .cls-3 {
        font-size: 170.93px;
      }
    </style>
  </defs>
  <g id="_레이어_4" data-name="레이어 4">
    <g>
      <polygon class="cls-4" points="48.91 43.6 3.32 106.96 11.12 146.65 2.28 201.11 117.74 224.85 160.72 202.37 234 231.01 295.18 188.25 318.18 142.86 298.51 48.61 197.06 62.42 136.5 24.35 91.33 48.77 48.91 43.6"/>
      <text class="cls-3" transform="translate(37.29 185.06) rotate(1.63) scale(.77 1)"><tspan x="0" y="0">캐치!</tspan></text>
    </g>
    <g>
      <polygon class="cls-4" points="347.24 21.57 301.65 84.93 309.45 124.62 300.61 179.08 409.8 189.14 458.56 189.39 532.33 208.98 593.51 166.21 616.51 120.83 599.13 57.32 573.51 29.76 495.39 40.39 434.83 2.31 389.66 26.74 347.24 21.57"/>
      <text class="cls-2" transform="translate(332.47 167.02) rotate(1.63) scale(.79 1)"><tspan x="0" y="0">캐치!</tspan></text>
    </g>
    <text class="cls-1" transform="translate(280.07 326.86) scale(.88 1)"><tspan x="0" y="0">빅데이터 퀴즈</tspan></text>
  </g>
</svg>