<svg width="765" height="360" viewBox="0 0 765 360" fill="none" xmlns="http://www.w3.org/2000/svg">
<g clip-path="url(#clip0_101_11)">
<path d="M48.9098 43.6001L3.31979 106.96L11.1198 146.65L2.27979 201.11L117.74 224.85L160.72 202.37L234 231.01L295.18 188.25L318.18 142.86L298.51 48.6101L197.06 62.4201L136.5 24.3501L91.3298 48.7701L48.9098 43.6001Z" fill="#DFD5A3" stroke="#42210B" stroke-width="4" stroke-miterlimit="10"/>
<path d="M85.0804 92.8059L47.5248 89.0362L47.9344 74.643L102.907 78.0079L93.151 130.848L79.1215 128.198L80.8378 115.343L48.1958 112.913L50.2589 98.4172L83.9376 101.326L85.0804 92.8059ZM129.68 70.517L130.017 95.5851L143.498 96.4189L142.565 71.1837L158.278 72.6812C159.121 81.7083 159.274 92.1662 158.736 104.055C158.297 112.445 157.548 121.177 156.49 130.25C155.482 137.524 154.979 141.161 154.979 141.161L140.607 140.002C140.607 140.002 141.617 130.877 143.636 112.628L129.093 112.215L126.381 138.996L110.188 138.536L113.916 70.8186L129.675 70.6669L129.68 70.517ZM212.403 72.871L211.197 83.6403L235.974 88.2467L221.528 110.793L239.486 123.009L231.82 134.044L203.225 121.226L183.842 132.679L173.226 120.823L207.125 100.18L175.721 96.4355L175.368 82.4707L194.704 83.171L195.046 71.1766L212.403 72.871ZM253.235 72.2323L270.254 70.0157L266.301 150.931L251.089 147.647L253.235 72.2323ZM311.596 121.609L285.303 122.812L291.451 54.4134L313.384 58.7888L311.596 121.609ZM286.286 135.744L313.183 134.409L312.513 157.948L289.188 155.033L286.286 135.744Z" fill="black"/>
<path d="M347.24 21.5701L301.65 84.9301L309.45 124.62L300.61 179.08L409.8 189.14L458.56 189.39L532.33 208.98L593.51 166.21L616.51 120.83L599.13 57.3201L573.51 29.7601L495.39 40.3901L434.83 2.31006L389.66 26.7401L347.24 21.5701Z" fill="#DFD5A3" stroke="#42210B" stroke-width="4" stroke-miterlimit="10"/>
<path d="M378.933 78.9879L342.381 75.3191L342.78 61.3107L396.283 64.5857L386.787 116.013L373.133 113.434L374.803 100.922L343.034 98.5579L345.042 84.4492L377.82 87.2805L378.933 78.9879ZM422.339 57.295L422.667 81.6928L435.788 82.5043L434.88 57.944L450.173 59.4014C450.994 68.1871 451.142 78.3654 450.618 89.9362C450.191 98.1022 449.462 106.6 448.432 115.431C447.452 122.51 446.962 126.05 446.962 126.05L432.974 124.922C432.974 124.922 433.957 116.041 435.923 98.2804L421.769 97.8776L419.128 123.943L403.369 123.495L406.997 57.5886L422.335 57.441L422.339 57.295ZM502.851 59.5861L501.676 70.0675L525.791 74.5507L511.731 96.4946L529.21 108.383L521.748 119.124L493.918 106.648L475.054 117.795L464.721 106.256L497.713 86.165L467.149 82.5205L466.806 68.9291L485.625 69.6107L485.957 57.9371L502.851 59.5861ZM542.591 58.9645L559.155 56.8072L555.308 135.559L540.503 132.363L542.591 58.9645ZM599.392 107.021L573.802 108.192L579.785 41.622L601.131 45.8805L599.392 107.021ZM574.758 120.778L600.936 119.478L600.284 142.388L577.582 139.551L574.758 120.778Z" fill="black"/>
<path d="M325.562 279.466L289.73 278.118L285.686 238.355L296.469 237.456L296.806 249.138L315.228 250.037L317.587 237.456L328.033 238.355L325.45 279.466H325.562ZM316.8 260.034H316.688H297.256L298.828 268.458H316.8V260.034ZM344.433 238.467L357.013 236.445L355.89 282.162L344.433 280.028V238.467ZM301.861 287.329L349.937 291.485V316.871L338.929 316.421L337.918 301.37L301.187 297.663L301.861 287.329ZM402.095 259.36L380.304 260.258L380.753 275.535L406.476 277.22L404.567 288.227L368.285 287.217L369.072 250.598L402.882 248.913L402.095 259.36ZM423.437 278.904L413.553 278.006L412.542 265.762L423.437 266.773L422.314 243.072L433.547 243.297L435.344 299.572H424.111L423.437 278.904ZM450.059 243.297L451.407 299.572H440.511L437.927 243.297H450.059ZM464.98 258.124C466.778 254.38 469.548 251.534 473.293 249.587C476.363 247.94 479.808 247.191 483.627 247.341C487.221 247.491 490.628 248.389 493.848 250.037C496.844 251.459 499.277 253.406 501.149 255.878C503.096 258.349 504.257 261.194 504.632 264.414C505.081 267.859 504.781 271.266 503.733 274.636C502.685 278.156 501 281.076 498.678 283.397C496.881 285.195 494.447 286.543 491.377 287.441C485.461 288.939 479.695 288.527 474.079 286.206C473.031 285.681 471.982 285.082 470.934 284.408C466.74 281.413 464.157 277.332 463.183 272.165C462.21 267.297 462.809 262.617 464.98 258.124ZM491.939 268.009V268.121C491.789 265.725 490.778 263.74 488.906 262.168C487.034 260.595 484.9 259.809 482.503 259.809C480.706 259.809 478.984 260.408 477.336 261.606C475.689 262.879 474.79 264.377 474.641 266.099C474.266 268.795 474.828 271.042 476.325 272.839C477.673 274.486 479.433 275.535 481.605 275.984C483.776 276.433 485.798 276.209 487.67 275.31C490.516 273.737 491.939 271.304 491.939 268.009ZM516.089 246.554L528.782 244.533L527.546 305.189L516.089 303.055V246.554ZM539.956 251.272L577.248 248.239L578.483 259.247L551.75 261.045L551.3 266.099L577.248 265.088L576.798 275.759L551.974 276.433L552.311 281.825L579.157 280.702L580.168 292.047L539.956 294.068V251.272ZM600.275 298.898V277.22L587.582 276.321V265.313H600.275L601.96 244.196L613.417 246.33L610.609 298.898H600.275ZM686.509 247.228L658.315 245.207V234.423L699.538 235.771L693.473 275.535L682.802 273.737L683.813 264.19L659.326 263.066L660.561 252.058L685.835 253.631L686.509 247.228ZM675.613 307.772L676.062 292.833H661.572V282.611L700.886 279.803V290.249L686.621 292.608V306.874L675.613 307.772ZM713.804 246.218L724.475 244.196V304.29L713.804 303.841V246.218ZM739.128 271.603L761.369 252.62L743.846 251.385V241.275L784.283 242.061L770.916 259.697L787.204 272.502L778.667 280.477L762.043 268.458L746.991 280.477L739.128 271.603ZM735.758 294.967L792.146 294.405L791.247 305.863L735.758 304.178V294.967Z" fill="black"/>
</g>
<defs>
<clipPath id="clip0_101_11">
<rect width="764.53" height="359.19" fill="white"/>
</clipPath>
</defs>
</svg>
