<svg width="799" height="348" viewBox="0 0 799 348" fill="none" xmlns="http://www.w3.org/2000/svg">
<path d="M48.9113 43.6047L3.32125 106.965L11.1213 146.655L2.28125 201.115L117.741 224.855L160.721 202.375L234.001 231.015L295.181 188.255L318.181 142.865L298.511 48.6147L197.061 62.4247L136.501 24.3547L91.3313 48.7747L48.9113 43.6047Z" fill="#DFD5A3" stroke="#42210B" stroke-width="4" stroke-miterlimit="10"/>
<path d="M85.0819 92.8105L47.5263 89.0409L47.9359 74.6476L102.909 78.0126L93.1524 130.853L79.123 128.203L80.8393 115.347L48.1973 112.918L50.2603 98.4218L83.9391 101.331L85.0819 92.8105ZM129.681 70.5216L130.018 95.5897L143.499 96.4235L142.567 71.1884L158.279 72.6859C159.123 81.7129 159.275 92.1708 158.737 104.06C158.298 112.45 157.55 121.182 156.491 130.255C155.484 137.528 154.98 141.165 154.98 141.165L140.608 140.006C140.608 140.006 141.618 130.882 143.638 112.633L129.095 112.219L126.382 139.001L110.19 138.54L113.917 70.8233L129.677 70.6715L129.681 70.5216ZM212.405 72.8756L211.198 83.645L235.976 88.2514L221.529 110.798L239.488 123.013L231.821 134.049L203.226 121.231L183.844 132.684L173.227 120.828L207.126 100.185L175.722 96.4402L175.369 82.4754L194.706 83.1757L195.047 71.1813L212.405 72.8756ZM253.237 72.237L270.256 70.0203L266.303 150.935L251.091 147.652L253.237 72.237ZM311.598 121.614L285.305 122.816L291.453 54.418L313.386 58.7934L311.598 121.614ZM286.287 135.749L313.184 134.413L312.515 157.952L289.189 155.038L286.287 135.749Z" fill="black"/>
<path d="M347.241 21.5747L301.651 84.9347L309.451 124.625L300.611 179.085L409.801 189.145L458.561 189.395L532.331 208.985L593.511 166.215L616.511 120.835L599.131 57.3247L573.511 29.7647L495.391 40.3947L434.831 2.3147L389.661 26.7447L347.241 21.5747Z" fill="#DFD5A3" stroke="#42210B" stroke-width="4" stroke-miterlimit="10"/>
<path d="M378.934 78.9927L342.383 75.3239L342.781 61.3155L396.284 64.5905L386.789 116.018L373.135 113.439L374.805 100.927L343.036 98.5626L345.044 84.454L377.822 87.2852L378.934 78.9927ZM422.341 57.2998L422.669 81.6976L435.789 82.5091L434.882 57.9487L450.174 59.4062C450.995 68.1919 451.144 78.3701 450.62 89.941C450.193 98.107 449.464 106.605 448.434 115.436C447.453 122.515 446.963 126.055 446.963 126.055L432.976 124.926C432.976 124.926 433.959 116.046 435.924 98.2851L421.77 97.8823L419.13 123.948L403.37 123.5L406.998 57.5934L422.337 57.4457L422.341 57.2998ZM502.852 59.5909L501.678 70.0723L525.793 74.5555L511.733 96.4993L529.211 108.388L521.75 119.128L493.919 106.653L475.055 117.8L464.723 106.261L497.715 86.1698L467.15 82.5253L466.807 68.9339L485.627 69.6155L485.959 57.9418L502.852 59.5909ZM542.593 58.9693L559.156 56.8119L555.309 135.563L540.504 132.367L542.593 58.9693ZM599.393 107.026L573.803 108.196L579.786 41.6268L601.133 45.8852L599.393 107.026ZM574.759 120.783L600.937 119.483L600.285 142.393L577.584 139.556L574.759 120.783Z" fill="black"/>
<path d="M325.563 279.471L289.731 278.123L285.688 238.359L296.471 237.461L296.808 249.143L315.229 250.041L317.588 237.461L328.035 238.359L325.451 279.471H325.563ZM316.802 260.038H316.69H297.257L298.83 268.463H316.802V260.038ZM344.434 238.472L357.015 236.45L355.891 282.166L344.434 280.032V238.472ZM301.863 287.333L349.938 291.49V316.875L338.93 316.426L337.919 301.374L301.189 297.667L301.863 287.333ZM402.097 259.364L380.306 260.263L380.755 275.539L406.478 277.224L404.568 288.232L368.287 287.221L369.073 250.603L402.883 248.918L402.097 259.364ZM423.439 278.909L413.554 278.01L412.543 265.767L423.439 266.778L422.316 243.077L433.548 243.302L435.345 299.577H424.113L423.439 278.909ZM450.06 243.302L451.408 299.577H440.512L437.929 243.302H450.06ZM464.982 258.129C466.779 254.385 469.55 251.539 473.294 249.592C476.364 247.944 479.809 247.196 483.628 247.345C487.223 247.495 490.63 248.394 493.85 250.041C496.845 251.464 499.279 253.411 501.151 255.882C503.098 258.353 504.259 261.199 504.633 264.419C505.082 267.864 504.783 271.271 503.734 274.641C502.686 278.16 501.001 281.081 498.68 283.402C496.883 285.199 494.449 286.547 491.379 287.446C485.463 288.944 479.697 288.532 474.08 286.21C473.032 285.686 471.984 285.087 470.935 284.413C466.742 281.418 464.158 277.336 463.185 272.169C462.211 267.302 462.81 262.622 464.982 258.129ZM491.94 268.013V268.126C491.79 265.729 490.78 263.745 488.907 262.172C487.035 260.6 484.901 259.814 482.505 259.814C480.708 259.814 478.985 260.413 477.338 261.611C475.69 262.884 474.792 264.382 474.642 266.104C474.268 268.8 474.829 271.046 476.327 272.843C477.675 274.491 479.435 275.539 481.606 275.989C483.778 276.438 485.8 276.213 487.672 275.315C490.517 273.742 491.94 271.308 491.94 268.013ZM516.09 246.559L528.783 244.537L527.548 305.193L516.09 303.059V246.559ZM539.957 251.277L577.249 248.244L578.485 259.252L551.751 261.049L551.302 266.104L577.249 265.093L576.8 275.764L551.976 276.438L552.313 281.83L579.159 280.706L580.17 292.051L539.957 294.073V251.277ZM600.276 298.903V277.224L587.583 276.326V265.318H600.276L601.961 244.2L613.418 246.334L610.61 298.903H600.276ZM686.51 247.233L658.316 245.211V234.428L699.54 235.776L693.474 275.539L682.803 273.742L683.814 264.194L659.327 263.071L660.563 252.063L685.836 253.636L686.51 247.233ZM675.614 307.777L676.064 292.837H661.574V282.616L700.888 279.808V290.254L686.622 292.613V306.878L675.614 307.777ZM713.805 246.222L724.476 244.2V304.295L713.805 303.845V246.222ZM739.13 271.608L761.37 252.625L743.847 251.389V241.28L784.285 242.066L770.918 259.701L787.205 272.506L778.668 280.482L762.044 268.463L746.992 280.482L739.13 271.608ZM735.76 294.972L792.147 294.41L791.249 305.867L735.76 304.182V294.972Z" fill="black"/>
</svg>
